<?xml version="1.0" encoding="utf-8"?>
<!-- Generator: Adobe Illustrator 26.2.1, SVG Export Plug-In . SVG Version: 6.00 Build 0)  -->
<svg version="1.1" id="Слой_1" xmlns="http://www.w3.org/2000/svg" xmlns:xlink="http://www.w3.org/1999/xlink" x="0px" y="0px"
	 viewBox="0 0 1080 1080" style="enable-background:new 0 0 1080 1080;" xml:space="preserve">
<style type="text/css">
	.st0{fill:#FFFFFF;}
</style>
<path class="st0" d="M840,826.7L781,767.6c-3.9,4.4-8,8.7-12.2,12.9c-132.2,132.2-344.3,134.4-476.5,2.2S157.8,434,290,301.8
	c131.5-131.5,346.5-129.9,478.9,0.2l-70.5,70.5L972.6,446l-73.5-274.3L827.9,243c-1.5-1.6-3.1-3.2-4.6-4.7
	C658.5,73.5,395.8,77.9,231,242.7s-164.8,432,0,596.8s432,164.8,596.8,0C832,835.3,836.1,831,840,826.7z"/>
</svg>
